<?xml version="1.0" encoding="UTF-8" standalone="no"?>
<!-- Created with Inkscape (http://www.inkscape.org/) -->

<svg
   xmlns:dc="http://purl.org/dc/elements/1.1/"
   xmlns:cc="http://creativecommons.org/ns#"
   xmlns:rdf="http://www.w3.org/1999/02/22-rdf-syntax-ns#"
   xmlns:svg="http://www.w3.org/2000/svg"
   xmlns="http://www.w3.org/2000/svg"
   xmlns:sodipodi="http://sodipodi.sourceforge.net/DTD/sodipodi-0.dtd"
   xmlns:inkscape="http://www.inkscape.org/namespaces/inkscape"
   id="svg2"
   version="1.1"
   inkscape:version="0.48.5 r10040"
   width="318.89749"
   height="127.55875"
   xml:space="preserve"
   sodipodi:docname="fichetechnique_logo_nord.pdf"><metadata
     id="metadata8"><rdf:RDF><cc:Work
         rdf:about=""><dc:format>image/svg+xml</dc:format><dc:type
           rdf:resource="http://purl.org/dc/dcmitype/StillImage" /><dc:title></dc:title></cc:Work></rdf:RDF></metadata><defs
     id="defs6"><clipPath
       clipPathUnits="userSpaceOnUse"
       id="clipPath254"><path
         d="m 0,0 595.276,0 0,841.89 L 0,841.89 0,0 z"
         id="path256"
         inkscape:connector-curvature="0" /></clipPath><clipPath
       clipPathUnits="userSpaceOnUse"
       id="clipPath268"><path
         d="m 0,0 595.276,0 0,841.89 L 0,841.89 0,0 z"
         id="path270"
         inkscape:connector-curvature="0" /></clipPath></defs><sodipodi:namedview
     pagecolor="#ffffff"
     bordercolor="#666666"
     borderopacity="1"
     objecttolerance="10"
     gridtolerance="10"
     guidetolerance="10"
     inkscape:pageopacity="0"
     inkscape:pageshadow="2"
     inkscape:window-width="1280"
     inkscape:window-height="669"
     id="namedview4"
     showgrid="false"
     fit-margin-top="0"
     fit-margin-left="0"
     fit-margin-right="0"
     fit-margin-bottom="0"
     inkscape:zoom="1.7940585"
     inkscape:cx="345.01118"
     inkscape:cy="26.376925"
     inkscape:window-x="0"
     inkscape:window-y="1"
     inkscape:window-maximized="1"
     inkscape:current-layer="g10" /><g
     id="g10"
     inkscape:groupmode="layer"
     inkscape:label="fichetechnique_logo_nord"
     transform="matrix(1.25,0,0,-1.25,-212.59875,751.18125)"><path
       d="m 425.197,498.898 -255.118,0 0,102.047 255.118,0 0,-102.047 z"
       style="fill:#6a7b96;fill-opacity:1;fill-rule:nonzero;stroke:none"
       id="path248"
       inkscape:connector-curvature="0" /><g
       id="g250"><g
         id="g252"
         clip-path="url(#clipPath254)"><path
           d="m 189.879,510.508 2.158,0 0,12.088 -2.158,0 0,-12.088 z m 10.669,4.963 c 0.097,1.114 0.71,1.953 1.919,1.953 1.21,0 1.694,-0.904 1.758,-1.953 l -3.677,0 z m 5.127,-2.739 c -0.805,-0.452 -1.708,-0.839 -2.756,-0.839 -1.339,0 -2.274,0.758 -2.371,2.097 l 5.739,0 c 0,2.901 -0.87,5.011 -3.949,5.011 -2.579,0 -3.851,-1.981 -3.851,-4.383 0,-2.725 1.594,-4.303 4.335,-4.303 1.162,0 2.064,0.225 2.853,0.66 l 0,1.757 z m 16.395,-2.224 3.077,0 c 3.451,0 6.496,1.16 6.496,5.625 0,4.466 -3.045,5.625 -6.496,5.625 l -3.077,0 0,-11.25 z m 2.254,9.479 1.258,0 c 1.887,0 3.709,-1.403 3.709,-3.854 0,-2.451 -1.822,-3.853 -3.709,-3.853 l -1.258,0 0,7.707 z m 16.073,-0.049 1.337,0 2.207,2.352 -2.207,0 -1.337,-2.352 z m -0.647,-4.467 c 0.097,1.114 0.71,1.953 1.92,1.953 1.209,0 1.693,-0.904 1.758,-1.953 l -3.678,0 z m 5.127,-2.739 c -0.805,-0.452 -1.707,-0.839 -2.756,-0.839 -1.338,0 -2.274,0.758 -2.371,2.097 l 5.739,0 c 0,2.901 -0.87,5.011 -3.948,5.011 -2.58,0 -3.852,-1.981 -3.852,-4.383 0,-2.725 1.594,-4.303 4.335,-4.303 1.162,0 2.064,0.225 2.853,0.66 l 0,1.757 z m 7.013,-5.609 2.158,0 0,4.337 0.032,0 c 0.759,-0.92 1.516,-1.145 2.436,-1.145 2.595,0 3.529,2.094 3.529,4.367 0,2.29 -0.934,4.319 -3.481,4.319 -1.274,0 -2.096,-0.563 -2.58,-1.368 l -0.032,0 0,1.175 -2.062,0 0,-11.685 z m 4.11,10.204 c 1.403,0 1.79,-1.532 1.79,-2.645 0,-1.145 -0.403,-2.693 -1.823,-2.693 -1.435,0 -1.903,1.516 -1.903,2.693 0,1.161 0.549,2.645 1.936,2.645 m 10.88,-0.807 c 0.725,0.549 1.644,0.904 2.563,0.904 1.274,0 1.871,-0.452 1.871,-1.792 l -1.194,0 c -0.903,0 -1.967,-0.08 -2.789,-0.482 -0.821,-0.403 -1.417,-1.128 -1.417,-2.37 0,-1.58 1.433,-2.465 2.9,-2.465 0.984,0 2.064,0.515 2.564,1.433 l 0.033,0 c 0.016,-0.258 0.016,-0.805 0.096,-1.24 l 1.901,0 c -0.049,0.644 -0.081,1.224 -0.097,1.852 -0.016,0.613 -0.032,1.242 -0.032,2.08 l 0,1.065 c 0,2.45 -1.047,3.496 -3.578,3.496 -0.919,0 -2.048,-0.241 -2.885,-0.627 l 0.064,-1.854 z m 1.095,-3.611 c 0,1.275 1.436,1.436 2.404,1.436 l 0.935,0 c 0,-0.645 -0.097,-1.242 -0.452,-1.71 -0.338,-0.452 -0.854,-0.742 -1.516,-0.742 -0.774,0 -1.371,0.306 -1.371,1.016 m 12.189,-2.401 2.158,0 0,3.047 c 0,1.193 0,3.385 1.757,3.385 0.386,0 0.773,-0.064 0.967,-0.177 l 0,2.174 c -0.226,0.064 -0.452,0.064 -0.661,0.064 -1.29,0 -2.176,-1.304 -2.273,-2.077 l -0.032,0 0,1.884 -1.916,0 0,-8.3 z m 11.638,2.497 c 0,-1.643 0.934,-2.69 2.625,-2.69 0.645,0 1.145,0.065 1.596,0.193 l -0.065,1.707 c -0.225,-0.145 -0.596,-0.226 -0.983,-0.226 -0.822,0 -1.015,0.662 -1.015,1.371 l 0,3.87 1.918,0 0,1.578 -1.918,0 0,2.353 -2.158,-0.693 0,-1.66 -1.596,0 0,-1.578 1.596,0 0,-4.225 z m 11.797,2.466 c 0.097,1.114 0.71,1.953 1.919,1.953 1.21,0 1.694,-0.904 1.758,-1.953 l -3.677,0 z m 5.126,-2.739 c -0.805,-0.452 -1.707,-0.839 -2.755,-0.839 -1.339,0 -2.274,0.758 -2.371,2.097 l 5.738,0 c 0,2.901 -0.869,5.011 -3.948,5.011 -2.579,0 -3.851,-1.981 -3.851,-4.383 0,-2.725 1.594,-4.303 4.335,-4.303 1.161,0 2.063,0.225 2.852,0.66 l 0,1.757 z m 6.982,-2.224 2.158,0 0,4.03 c 0,1.08 0.177,2.789 1.613,2.789 1.242,0 1.242,-1.096 1.242,-1.87 l 0,-4.949 2.158,0 0,4.03 c 0,1.08 0.177,2.789 1.613,2.789 1.242,0 1.242,-1.096 1.242,-1.87 l 0,-4.949 2.158,0 0,5.239 c 0,1.854 -0.58,3.254 -2.626,3.254 -1.016,0 -2.097,-0.467 -2.597,-1.465 -0.467,1.031 -1.288,1.465 -2.448,1.465 -0.807,0 -1.791,-0.338 -2.468,-1.352 l -0.032,0 0,1.159 -2.013,0 0,-8.3 z m 20.598,4.963 c 0.097,1.114 0.71,1.953 1.919,1.953 1.21,0 1.694,-0.904 1.758,-1.953 l -3.677,0 z m 5.127,-2.739 c -0.806,-0.452 -1.708,-0.839 -2.756,-0.839 -1.339,0 -2.274,0.758 -2.371,2.097 l 5.738,0 c 0,2.901 -0.869,5.011 -3.948,5.011 -2.579,0 -3.851,-1.981 -3.851,-4.383 0,-2.725 1.594,-4.303 4.335,-4.303 1.161,0 2.063,0.225 2.853,0.66 l 0,1.757 z m 7.013,-2.224 2.158,0 0,4.063 c 0,1.063 0.339,2.756 1.903,2.756 1.387,0 1.403,-1.37 1.403,-2.386 l 0,-4.433 2.158,0 0,5.239 c 0,1.87 -0.853,3.254 -2.819,3.254 -1.129,0 -2.048,-0.37 -2.726,-1.32 l -0.032,0 0,1.127 -2.045,0 0,-8.3 z m 15.265,2.497 c 0,-1.643 0.934,-2.69 2.625,-2.69 0.645,0 1.145,0.065 1.596,0.193 l -0.064,1.707 c -0.226,-0.145 -0.597,-0.226 -0.984,-0.226 -0.822,0 -1.015,0.662 -1.015,1.371 l 0,3.87 1.918,0 0,1.578 -1.918,0 0,2.353 -2.158,-0.693 0,-1.66 -1.596,0 0,-1.578 1.596,0 0,-4.225 z"
           style="fill:#ffffff;fill-opacity:1;fill-rule:nonzero;stroke:none"
           id="path258"
           inkscape:connector-curvature="0" /></g></g><g
       id="g260"
       transform="translate(189.7411,527.8386)"><path
         d="m 0,0 15.532,0 -0.545,41.264 0.182,0 L 37.332,0 l 20.983,0 0,60.382 -15.442,0 0.273,-41.004 -0.182,0 L 21.527,60.382 0,60.382 0,0 z"
         style="fill:#ffffff;fill-opacity:1;fill-rule:nonzero;stroke:none"
         id="path262"
         inkscape:connector-curvature="0" /></g><g
       id="g264"><g
         id="g266"
         clip-path="url(#clipPath268)"><g
           id="g272"
           transform="translate(281.9341,526.8005)"><path
             d="M 0,0 C 15.623,0 27.522,8.651 27.522,23.53 27.522,38.496 15.623,47.146 0,47.146 -15.623,47.146 -27.522,38.496 -27.522,23.53 -27.522,8.651 -15.623,0 0,0 m 0,10.9 c -7.539,0 -10.627,5.969 -10.627,12.63 0,6.748 3.088,12.717 10.627,12.717 7.539,0 10.627,-5.969 10.627,-12.717 C 10.627,16.869 7.539,10.9 0,10.9"
             style="fill:#ffffff;fill-opacity:1;fill-rule:nonzero;stroke:none"
             id="path274"
             inkscape:connector-curvature="0" /></g><g
           id="g276"
           transform="translate(350.1827,573.428)"><path
             d="m 0,0 c -1.635,0.259 -3.633,0.519 -5.541,0.519 -7.085,0 -11.172,-3.633 -13.988,-9.343 l -0.182,0 0,8.305 -14.896,0 0,-45.07 16.35,0 0,19.031 c 0,8.824 4.269,14.101 11.899,14.101 1.907,0 3.724,0 5.541,-0.519 L 0,0 z"
             style="fill:#ffffff;fill-opacity:1;fill-rule:nonzero;stroke:none"
             id="path278"
             inkscape:connector-curvature="0" /></g><g
           id="g280"
           transform="translate(405.5345,592.7192)"><path
             d="m 0,0 -16.441,0 0,-25.606 -0.181,0 c -4.179,5.19 -9.719,6.834 -16.259,6.834 -13.08,0 -20.256,-11.679 -20.256,-22.752 0,-13.322 7.539,-24.395 21.618,-24.395 7.539,0 14.17,4.066 16.259,9.084 l 0.182,0 0,-8.046 15.078,0 L 0,0 z m -36.242,-41.87 c 0,5.969 3.542,11.16 9.901,11.16 5.994,0 9.991,-4.931 9.991,-11.765 0,-6.575 -4.542,-11.506 -9.991,-11.506 -6.177,0 -9.901,4.931 -9.901,12.111"
             style="fill:#ffffff;fill-opacity:1;fill-rule:nonzero;stroke:none"
             id="path282"
             inkscape:connector-curvature="0" /></g></g></g></g></svg>